<?xml version="1.0" encoding="UTF-8"?>
<svg width="166px" height="36px" viewBox="0 0 166 36" version="1.1" xmlns="http://www.w3.org/2000/svg" xmlns:xlink="http://www.w3.org/1999/xlink">
    <!-- Generator: Sketch 52.5 (67469) - http://www.bohemiancoding.com/sketch -->
    <title>Group 45</title>
    <desc>Created with Sketch.</desc>
    <defs>
        <polygon id="path-1" points="0.308506254 0.373720354 78.2759779 0.373720354 78.2759779 35.2566372 0.308506254 35.2566372"></polygon>
        <polygon id="path-3" points="0.810829204 0.00734513274 1.20460177 0.00734513274 1.20460177 0.741858407 0.810829204 0.741858407"></polygon>
        <polygon id="path-5" points="0 0.373720354 11.9598593 0.373720354 11.9598593 11.0888 0 11.0888"></polygon>
        <polygon id="path-7" points="0.429910619 0.0499469027 10.3039726 0.0499469027 10.3039726 11.4112513 0.429910619 11.4112513"></polygon>
    </defs>
    <g id="Symbols" stroke="none" stroke-width="1" fill="none" fill-rule="evenodd">
        <g id="Header-#2-Copy-2" transform="translate(-100.000000, -35.000000)">
            <g id="Group-45" transform="translate(100.000000, 35.000000)">
                <path d="M164.815304,27.8212327 L164.664728,27.8109496 L164.815304,27.8212327 Z" id="Fill-1" fill="#002A54"></path>
                <g id="Group-44" transform="translate(0.000000, 0.684419)">
                    <g id="Group-4" transform="translate(87.407080, 0.000000)">
                        <mask id="mask-2" fill="white">
                            <use xlink:href="#path-1"></use>
                        </mask>
                        <g id="Clip-3"></g>
                        <path d="M60.9796593,29.7424991 C60.4192257,27.6579504 62.2481637,24.6207381 64.3995531,24.2123487 L64.4502345,24.2079416 L64.4590487,24.2887381 C64.2629336,26.3292159 63.2654646,28.1743133 61.5812257,29.3465965 C61.3902522,29.4810124 61.1882611,29.6124903 60.9796593,29.7424991 Z M40.4463407,21.9588619 C40.2414115,22.8351363 40.0071018,23.6570566 39.2975619,24.6912513 C38.5887566,25.7247115 37.0631726,26.7001451 36.0238363,27.1188177 C34.7347655,27.6381186 33.8731814,26.9770566 33.7284823,25.6358354 C33.4067655,22.6360832 35.0873319,19.8890035 38.2060752,19.4196496 C39.8925177,19.1662425 40.8341637,20.3106142 40.4463407,21.9588619 Z M77.2557389,27.1261628 C76.9780929,27.1261628 76.7254204,27.2311982 76.5359159,27.4038088 L76.4911106,27.4324549 L76.3449425,27.5235345 L73.6647035,28.9778708 C70.4636947,30.5203487 66.4165265,32.638685 62.7858274,31.5163487 C62.6668363,31.4788885 62.5537212,31.4377558 62.4472168,31.3922159 C63.6099513,30.6305257 64.6132965,29.6734549 65.2817035,28.4879504 C66.1050929,27.0270035 67.9523938,22.4987292 64.782969,22.0815257 C62.1952788,21.7407115 59.6847124,24.7044726 59.0398097,26.8808354 C58.6894469,28.0678088 58.6321549,29.516269 59.0655177,30.7436407 C56.5218982,31.8343929 53.5177389,32.1913664 51.554385,30.124446 C49.6843142,28.156685 50.4188274,25.3853664 52.2617212,23.7106761 C53.3341106,22.904915 54.7796327,22.5831982 56.1546416,22.406915 C56.9332257,22.406915 57.7125442,22.4833044 58.4169425,22.5501451 C58.4735,22.5560212 58.5653142,22.6133133 58.5873496,22.5611628 C59.551031,20.3407292 59.1896504,20.2577292 57.2916681,20.2033752 C56.6923053,20.1864814 56.0701726,20.2217381 55.4465708,20.3084106 C54.5409159,20.3612956 53.6492168,20.5170124 52.8214204,20.8659062 C52.2367478,21.1119681 51.6829248,21.4417646 51.1753761,21.8369327 C50.7978363,22.0815257 50.4445354,22.3540301 50.1242876,22.6537115 C48.1881106,24.4576761 48.4202168,28.0435699 45.3440752,28.7009593 L45.0634912,28.7303398 L44.9613938,28.7222602 L44.9268717,28.5973929 L44.8666416,28.0347558 C45.0135442,25.6791717 45.9625354,24.2644991 46.7918009,22.070508 C47.0716504,21.3301186 46.7851903,20.5662248 45.9184646,20.469269 C44.9893053,20.3657027 43.7450398,20.2907823 42.6395973,20.4641274 C42.4912257,18.1944814 39.990208,17.0141186 37.9497301,17.2947027 C34.3660398,17.7875611 31.7129779,20.7630743 31.524208,24.3497027 C31.4132965,26.4827292 32.1676416,29.0358973 34.5665619,29.3958088 C34.958792,29.4545699 35.3568982,29.4582425 35.7557389,29.4141717 C35.011677,29.9209858 34.1956327,30.2742867 33.3178894,30.4057646 C32.3321726,30.5541363 31.6189602,30.0252867 31.4037478,29.0373664 C30.9042788,26.747154 31.7724735,23.3926319 29.0107035,22.2732336 C26.6940487,21.3352602 24.2378363,22.3643133 22.3236947,23.8318708 L24.912854,19.3058 L25.2602788,18.6836673 C25.8765354,17.7567115 26.4670841,16.8224106 27.0333938,15.8866407 L28.9820575,12.2552071 C29.4918097,11.2210124 30.3012434,10.2969947 30.2336681,9.06668496 C30.1785796,8.07582655 28.7088186,8.21538407 28.315854,8.79858761 L28.2534204,8.91757876 L28.2490133,8.91610973 L28.068323,9.24223363 L28.068323,2.44210973 C28.068323,2.03812743 28.2945531,1.79573805 28.6985354,1.79573805 L29.6680929,1.79573805 L29.6680929,0.373720354 L24.691031,0.373720354 L24.691031,1.79573805 L25.6767478,1.79573805 C26.0799956,1.79573805 26.3069602,2.03812743 26.3069602,2.44210973 L26.3069602,7.75925133 L26.2746416,7.75925133 L22.0886504,0.373720354 L16.8846239,0.373720354 L16.8846239,1.79573805 L17.8865,1.79573805 C18.2904823,1.79573805 18.5167124,2.03812743 18.5167124,2.44210973 L18.5167124,9.01967611 C18.5167124,9.42365841 18.2904823,9.66604779 17.8865,9.66604779 L16.9007832,9.66604779 L16.9007832,11.0888 L21.8947389,11.0888 L21.8947389,9.66604779 L20.9082876,9.66604779 C20.5050398,9.66604779 20.2788097,9.42365841 20.2788097,9.01967611 L20.2788097,3.1208 L20.3111283,3.1208 L24.8034115,11.0888 L27.046615,11.0888 L26.5265796,12.0260389 L23.4842257,17.4739239 C19.8762965,22.8534991 15.450854,27.7012867 9.73780973,30.8802602 C7.91695133,31.8938885 4.92895133,32.8524283 3.16611947,31.1593752 C1.68827876,29.7402956 2.72247345,27.1900655 3.56496018,25.7518885 C5.62086283,22.2489947 9.84284513,19.0347646 13.9487743,20.8504814 C14.4629336,21.1420832 15.1159159,20.9606584 15.4067832,20.4464991 C15.6976504,19.9323398 15.5162257,19.278623 15.0020664,18.9877558 C13.2833053,18.2290035 11.7489071,17.8448531 9.84211062,18.2914372 C5.03619027,19.417446 -0.192809735,24.7389947 0.347057522,29.9753398 C0.736349558,33.7573487 5.23818142,34.939915 8.33195133,33.7683664 C11.6203673,32.5226319 14.5444646,30.6040832 17.1556593,28.2830212 C15.9936593,29.9694637 14.7795088,31.6294637 14.1382788,33.5215699 L14.0758451,33.6031009 L14.1044912,33.6236673 C14.012677,33.9027823 13.9340841,34.1870389 13.8701814,34.4771717 C13.6388097,35.5275257 15.3781372,35.3453664 15.7615531,34.9215522 L20.9956947,28.1831274 C22.5521283,26.2961628 24.1357389,24.5715257 26.630146,24.2064726 C27.6151283,24.062508 28.6449159,24.0691186 28.898323,25.1841097 C29.3772257,27.2928973 28.7352611,29.5596053 30.2571726,31.3628354 C32.4467566,33.9578708 36.5078805,31.923269 38.357385,29.9481628 C39.5032257,28.7259327 40.6182168,26.9726496 41.3152699,25.7687823 C42.012323,24.564915 42.2701372,24.0140301 42.5808363,22.9658796 L42.5977301,22.7058619 L43.0854469,22.6426938 L44.2019071,22.5905434 C43.9455619,23.1451009 43.669385,23.5219062 43.4314027,24.2542159 C43.1941549,24.9872602 42.8636239,26.3005699 42.7828274,26.9660389 C42.7012965,27.631508 42.7453673,27.714508 42.7262699,28.0883752 C42.6631018,29.9547735 43.8478717,31.1505611 45.7318982,30.8060743 C46.9489867,30.5827823 47.8524381,30.0120655 48.5788717,29.2503752 C49.8209336,32.9662779 53.6183673,34.2597558 57.1866327,33.4921894 C58.1951195,33.275508 59.2535531,32.9596673 60.2774646,32.5307115 C62.9077566,34.9053929 67.1723407,33.8491628 70.1625442,32.8215788 C72.722323,31.9416319 75.6625796,30.7568619 77.8558363,29.0939239 L77.9439779,29.0234106 L78.0299159,28.9418796 L78.2759779,28.3285611 L77.257208,27.1261628 L77.2557389,27.1261628 Z" id="Fill-2" fill="#002A54" mask="url(#mask-2)"></path>
                    </g>
                    <path d="M135.116728,19.3506788 C135.694056,19.3506788 136.164144,18.8681035 136.164144,18.2760858 C136.164144,17.6848027 135.694056,17.2014929 135.116728,17.2014929 C134.540135,17.2014929 134.068578,17.6848027 134.068578,18.2760858 C134.068578,18.8681035 134.540135,19.3506788 135.116728,19.3506788" id="Fill-5" fill="#002A54"></path>
                    <g id="Group-9" transform="translate(164.530973, 27.911504)">
                        <mask id="mask-4" fill="white">
                            <use xlink:href="#path-3"></use>
                        </mask>
                        <g id="Clip-8"></g>
                        <polygon id="Fill-7" fill="#002A54" mask="url(#mask-4)" points="1.15201062 0.41720354 1.19020531 0.46200885 1.20416106 0.28719469"></polygon>
                    </g>
                    <g id="Group-12">
                        <mask id="mask-6" fill="white">
                            <use xlink:href="#path-5"></use>
                        </mask>
                        <g id="Clip-11"></g>
                        <path d="M5.33381504,2.78145487 L5.36613363,2.78145487 L6.52960265,6.25570265 L4.18650531,6.25570265 L5.33381504,2.78145487 Z M4.75208053,9.66604779 L4.28272655,9.66604779 C3.84716018,9.66604779 3.28085044,9.61756991 3.28085044,9.35902124 C3.28085044,9.13279115 3.34548761,8.89040177 3.52323982,8.32482655 L3.71788584,7.67845487 L7.01438142,7.67845487 L7.35372655,8.84192389 C7.41836372,9.08431327 7.43452301,9.26206549 7.43452301,9.42365841 C7.43452301,9.60141062 7.03054071,9.66604779 6.54576195,9.66604779 L6.06098319,9.66604779 L6.06098319,11.0888 L11.9598593,11.0888 L11.9598593,9.66604779 L11.4097088,9.66604779 C10.8448681,9.66604779 10.6179035,9.4398177 10.2954522,8.45410088 L7.59611593,0.373720354 L4.36425752,0.373720354 L1.66492124,8.45410088 C1.34100088,9.4398177 1.11550531,9.66604779 0.549195575,9.66604779 L-0.000220353982,9.66604779 L-0.000220353982,11.0888 L4.75208053,11.0888 L4.75208053,9.66604779 Z" id="Fill-10" fill="#002A54" mask="url(#mask-6)"></path>
                    </g>
                    <path d="M24.7094673,0.373426549 L19.7801487,0.373426549 L19.7801487,1.79544425 L20.7342814,1.79544425 C21.1382637,1.79544425 21.3637593,2.03783363 21.3637593,2.44181593 L21.3637593,7.08026726 C21.3637593,9.08401947 21.041308,9.90814336 19.1660956,9.90814336 C17.8571929,9.90814336 17.2916177,9.18170973 17.2916177,8.14678053 L17.2916177,2.44181593 C17.2916177,2.03783363 17.5178478,1.79544425 17.9218301,1.79544425 L18.9237062,1.79544425 L18.9237062,0.373426549 L12.6208478,0.373426549 L12.6208478,1.79544425 L13.6227239,1.79544425 C14.0267062,1.79544425 14.2536708,2.03783363 14.2536708,2.44181593 L14.2536708,7.79127611 C14.2536708,10.5067717 15.9988743,11.411692 18.8429097,11.411692 C21.8485381,11.411692 23.1258566,10.0219929 23.1258566,7.62968319 L23.1258566,2.44181593 C23.1258566,2.03783363 23.3520867,1.79544425 23.756069,1.79544425 L24.7094673,1.79544425 L24.7094673,0.373426549 Z" id="Fill-13" fill="#002A54"></path>
                    <g id="Group-17" transform="translate(24.973451, 0.000000)">
                        <mask id="mask-8" fill="white">
                            <use xlink:href="#path-7"></use>
                        </mask>
                        <g id="Clip-16"></g>
                        <path d="M7.42761858,8.51873805 C7.42761858,9.4398177 6.40884867,9.90843717 5.5693,9.90843717 C3.66176903,9.90843717 2.25591062,8.72880885 2.04583982,7.03208319 L0.543025664,7.03208319 L0.543025664,11.2665522 L1.90040619,11.2665522 L2.32054779,10.4093752 C3.3393177,11.1527027 4.59900796,11.4112513 5.84400796,11.4112513 C8.07399027,11.4112513 10.3039726,10.5386496 10.3039726,7.95316283 C10.3039726,3.34703009 3.3062646,4.97911858 3.3062646,2.94304779 C3.3062646,1.86037522 4.17886637,1.55334867 5.11683982,1.55334867 C6.53885752,1.55334867 8.04167168,2.5067469 8.28406106,4.20347257 L9.77071593,4.20347257 L9.77071593,0.227552212 L8.42949469,0.227552212 L8.13862743,0.987773451 C7.21754779,0.406038938 6.16645929,0.0498 5.06762743,0.0498 C2.83764513,0.0498 0.429910619,0.776968142 0.429910619,3.44398584 C0.429910619,8.08243717 7.42761858,6.20795929 7.42761858,8.51873805" id="Fill-15" fill="#002A54" mask="url(#mask-8)"></path>
                    </g>
                    <path d="M40.0439009,1.7955177 L40.0439009,9.01945575 C40.0439009,9.42417257 39.8169363,9.66582743 39.4136885,9.66582743 L38.4110779,9.66582743 L38.4110779,11.0885796 L44.6816177,11.0885796 L44.6816177,9.66582743 L43.7120602,9.66582743 C43.3080779,9.66582743 43.0825823,9.42417257 43.0825823,9.01945575 L43.0825823,1.7955177 C44.9409009,1.7955177 45.4256796,2.82971239 45.4256796,4.47796018 L46.9284938,4.47796018 L46.9284938,0.3735 L36.1972549,0.3735 L36.1972549,4.47796018 L37.7008035,4.47796018 C37.7008035,2.82971239 38.1855823,1.7955177 40.0439009,1.7955177" id="Fill-18" fill="#002A54"></path>
                    <path d="M52.3405345,1.7955177 L53.5040035,1.7955177 C54.9906584,1.7955177 55.6862425,2.07022566 55.6862425,3.26601327 C55.6862425,4.55949115 55.0876142,4.81803982 53.8918265,4.81803982 L52.3405345,4.81803982 L52.3405345,1.7955177 Z M49.3018531,2.44188938 L49.3018531,9.01945575 C49.3018531,9.42417257 49.075623,9.66582743 48.6716407,9.66582743 L47.6859239,9.66582743 L47.6859239,11.0885796 L53.972623,11.0885796 L53.972623,9.66582743 L52.9700124,9.66582743 C52.5667646,9.66582743 52.3405345,9.42417257 52.3405345,9.01945575 L52.3405345,6.24005752 L53.6655965,6.24005752 C54.9744991,6.24005752 55.136092,6.46628761 55.136092,7.43584513 L55.136092,8.76090708 C55.136092,10.6522788 56.1702867,11.4117655 57.706154,11.4117655 C59.7907027,11.4117655 60.3408531,10.2159779 60.3408531,8.64852655 L60.3408531,8.09837611 L59.257446,8.09837611 L59.257446,8.74474779 C59.257446,9.24642035 59.144331,9.74735841 58.7234549,9.74735841 C58.2878885,9.74735841 58.1740389,9.50496903 58.1740389,9.19794248 L58.1740389,7.5004823 C58.1740389,6.17542035 57.4960832,5.78759735 56.2834018,5.44825221 L56.2834018,5.41593363 C57.6892602,5.22202212 58.7234549,4.52717257 58.7234549,2.99130531 C58.7234549,1.26226106 57.3822336,0.3735 55.1199327,0.3735 L47.6697646,0.3735 L47.6697646,1.7955177 L48.6716407,1.7955177 C49.075623,1.7955177 49.3018531,2.03790708 49.3018531,2.44188938 Z" id="Fill-20" fill="#002A54"></path>
                    <path d="M66.3831062,2.78145487 L66.4154248,2.78145487 L67.5788938,6.25570265 L65.2357965,6.25570265 L66.3831062,2.78145487 Z M65.8013717,9.66604779 L65.3320177,9.66604779 C64.8964513,9.66604779 64.3301416,9.61756991 64.3301416,9.35902124 C64.3301416,9.13279115 64.3947788,8.89040177 64.572531,8.32482655 L64.767177,7.67845487 L68.0636726,7.67845487 L68.4030177,8.84192389 C68.4676549,9.08431327 68.4838142,9.26206549 68.4838142,9.42365841 C68.4838142,9.60141062 68.0798319,9.66604779 67.5950531,9.66604779 L67.1102743,9.66604779 L67.1102743,11.0888 L73.0091504,11.0888 L73.0091504,9.66604779 L72.459,9.66604779 C71.8941593,9.66604779 71.6671947,9.4398177 71.3447434,8.45410088 L68.6454071,0.373720354 L65.4135487,0.373720354 L62.7142124,8.45410088 C62.390292,9.4398177 62.1647965,9.66604779 61.5984867,9.66604779 L61.0490708,9.66604779 L61.0490708,11.0888 L65.8013717,11.0888 L65.8013717,9.66604779 Z" id="Fill-22" fill="#002A54"></path>
                    <path d="M75.2538965,2.44210973 L75.2538965,9.01967611 C75.2538965,9.42365841 75.0276664,9.66604779 74.6236841,9.66604779 L73.6379673,9.66604779 L73.6379673,11.0880655 L83.803631,11.0880655 L83.803631,6.67657876 L82.3008168,6.67657876 C82.3008168,8.4217823 81.9937903,9.66604779 80.0539407,9.66604779 L78.2925779,9.66604779 L78.2925779,2.44210973 C78.2925779,2.03812743 78.5180735,1.79573805 78.9227903,1.79573805 L79.9246664,1.79573805 L79.9246664,0.373720354 L73.6210735,0.373720354 L73.6210735,1.79573805 L74.6236841,1.79573805 C75.0276664,1.79573805 75.2538965,2.03812743 75.2538965,2.44210973" id="Fill-24" fill="#002A54"></path>
                    <path d="M86.2744602,2.21580619 L86.2744602,9.01960265 C86.2744602,9.42358496 86.0482301,9.66597434 85.6442478,9.66597434 L84.658531,9.66597434 L84.658531,11.0887265 L90.9290708,11.0887265 L90.9290708,9.66597434 L89.943354,9.66597434 C89.5386372,9.66597434 89.3131416,9.42358496 89.3131416,9.01960265 L89.3131416,2.44203628 C89.3131416,1.86030177 89.5386372,1.7956646 89.943354,1.7956646 L90.9452301,1.7956646 L90.9452301,0.373646903 L84.6416372,0.373646903 L84.6416372,1.7956646 L85.6442478,1.7956646 C86.0482301,1.7956646 86.2744602,1.94109823 86.2744602,2.21580619" id="Fill-26" fill="#002A54"></path>
                    <path d="M96.907715,2.78145487 L96.9400336,2.78145487 L98.1035027,6.25570265 L95.7604053,6.25570265 L96.907715,2.78145487 Z M96.3259805,9.66604779 L95.8566265,9.66604779 C95.4210602,9.66604779 94.8547504,9.61756991 94.8547504,9.35902124 C94.8547504,9.13279115 94.9193876,8.89040177 95.0971398,8.32482655 L95.2917858,7.67845487 L98.5882814,7.67845487 L98.9276265,8.84192389 C98.9922637,9.08431327 99.008423,9.26206549 99.008423,9.42365841 C99.008423,9.60141062 98.6044407,9.66604779 98.1196619,9.66604779 L97.6348832,9.66604779 L97.6348832,11.0888 L103.533759,11.0888 L103.533759,9.66604779 L102.983609,9.66604779 C102.418768,9.66604779 102.191804,9.4398177 101.869352,8.45410088 L99.1700159,0.373720354 L95.9381575,0.373720354 L93.2388212,8.45410088 C92.9149009,9.4398177 92.6894053,9.66604779 92.1230956,9.66604779 L91.5736796,9.66604779 L91.5736796,11.0888 L96.3259805,11.0888 L96.3259805,9.66604779 Z" id="Fill-28" fill="#002A54"></path>
                    <path d="M8.95401062,14.6476637 C8.24226726,13.9689735 6.5293823,13.5649912 5.7214177,13.5649912 C2.58578053,13.5649912 0.226523894,15.8111327 0.226523894,19.2376372 C0.226523894,23.019646 2.58578053,24.9264425 5.9314885,24.9264425 C8.92169204,24.9264425 10.6830549,23.4882655 10.7315327,20.5142212 L9.22871858,20.5142212 C9.22871858,22.0177699 8.32379823,23.4236283 6.62633805,23.4236283 C4.36403717,23.4236283 3.73382478,21.7915398 3.73382478,19.2376372 C3.73382478,16.3612832 4.7033823,15.0678053 6.49706372,15.0678053 C8.32379823,15.0678053 9.22871858,16.4743982 9.22871858,18.1388053 L10.7315327,18.1388053 L10.7315327,13.7427434 L9.27646195,13.7427434 L8.95401062,14.6476637 Z" id="Fill-30" fill="#002A54"></path>
                    <path d="M17.7603106,23.4234814 C16.1443814,23.4234814 15.4003195,22.0822602 15.4003195,19.2536496 C15.4003195,16.4257735 16.1443814,15.0683929 17.7603106,15.0683929 C19.3762398,15.0683929 20.1195673,16.4257735 20.1195673,19.2536496 C20.1195673,22.0822602 19.3762398,23.4234814 17.7603106,23.4234814 M17.7603106,13.5648442 C14.2045319,13.5648442 11.8937531,15.7470832 11.8937531,19.2536496 C11.8937531,22.7609504 14.2045319,24.9262956 17.7603106,24.9262956 C21.3160894,24.9262956 23.6268681,22.7609504 23.6268681,19.2536496 C23.6268681,15.7470832 21.3160894,13.5648442 17.7603106,13.5648442" id="Fill-32" fill="#002A54"></path>
                    <path d="M31.4470841,15.3104885 L32.4012168,15.3104885 C32.8051991,15.3104885 33.0306947,15.5528779 33.0306947,15.9568602 L33.0306947,20.5953115 C33.0306947,22.5990637 32.7082434,23.4231876 30.833031,23.4231876 C29.5241283,23.4231876 28.9578186,22.696754 28.9578186,21.6618248 L28.9578186,15.9568602 C28.9578186,15.5528779 29.1847832,15.3104885 29.5887655,15.3104885 L30.5906416,15.3104885 L30.5906416,13.8884708 L24.2877832,13.8884708 L24.2877832,15.3104885 L25.2896593,15.3104885 C25.6936416,15.3104885 25.9206062,15.5528779 25.9206062,15.9568602 L25.9206062,21.3063204 C25.9206062,24.0218159 27.6658097,24.9267363 30.5105796,24.9267363 C33.5154735,24.9267363 34.792792,23.5370372 34.792792,21.1447274 L34.792792,15.9568602 C34.792792,15.5528779 35.0190221,15.3104885 35.4230044,15.3104885 L36.3764027,15.3104885 L36.3764027,13.8884708 L31.4470841,13.8884708 L31.4470841,15.3104885 Z" id="Fill-34" fill="#002A54"></path>
                    <path d="M44.7622673,15.3104885 L45.7479841,15.3104885 C46.1519664,15.3104885 46.3781965,15.5528779 46.3781965,15.9568602 L46.3781965,21.2740018 L46.3458779,21.2740018 L42.1598867,13.8884708 L36.9558602,13.8884708 L36.9558602,15.3104885 L37.9577363,15.3104885 C38.3617186,15.3104885 38.5886832,15.5528779 38.5886832,15.9568602 L38.5886832,22.5344265 C38.5886832,22.9391434 38.3617186,23.1815327 37.9577363,23.1815327 L36.972754,23.1815327 L36.972754,24.6035504 L41.9659752,24.6035504 L41.9659752,23.1815327 L40.9802584,23.1815327 C40.5762761,23.1815327 40.350046,22.9391434 40.350046,22.5344265 L40.350046,16.6355504 L40.3823646,16.6355504 L44.8746478,24.6035504 L48.1402938,24.6035504 L48.1402938,15.9568602 C48.1402938,15.5528779 48.3657894,15.3104885 48.7697717,15.3104885 L49.7393292,15.3104885 L49.7393292,13.8884708 L44.7622673,13.8884708 L44.7622673,15.3104885 Z" id="Fill-36" fill="#002A54"></path>
                    <path d="M50.5458248,17.9931513 L52.0493735,17.9931513 C52.0493735,16.3449035 52.5341522,15.3107088 54.3924708,15.3107088 L54.3924708,22.5346469 C54.3924708,22.9386292 54.1662407,23.1810186 53.7622584,23.1810186 L52.7603823,23.1810186 L52.7603823,24.6037708 L59.0309221,24.6037708 L59.0309221,23.1810186 L58.0606301,23.1810186 C57.6573823,23.1810186 57.4311522,22.9386292 57.4311522,22.5346469 L57.4311522,15.3107088 C59.2894708,15.3107088 59.7742496,16.3449035 59.7742496,17.9931513 L61.2770637,17.9931513 L61.2770637,13.8886912 L50.5458248,13.8886912 L50.5458248,17.9931513 Z" id="Fill-38" fill="#002A54"></path>
                    <path d="M68.2415717,18.3327903 L66.6902796,18.3327903 L66.6902796,15.3102681 L67.8537487,15.3102681 C69.3404035,15.3102681 70.0352531,15.5849761 70.0352531,16.7814982 C70.0352531,18.0742416 69.4373593,18.3327903 68.2415717,18.3327903 Z M73.6071912,22.2602327 C73.6071912,22.7611708 73.4933416,23.2621088 73.0732,23.2621088 C72.6368991,23.2621088 72.5237841,23.0197195 72.5237841,22.7126929 L72.5237841,21.0152327 C72.5237841,19.6901708 71.8450938,19.3023478 70.6331469,18.9630027 L70.6331469,18.9306841 C72.0390053,18.7367726 73.0732,18.041923 73.0732,16.5067903 C73.0732,14.7770115 71.7319788,13.8882504 69.4696779,13.8882504 L62.0187752,13.8882504 L62.0187752,15.3102681 L63.0213858,15.3102681 C63.4246336,15.3102681 63.6515982,15.5526575 63.6515982,15.9573743 L63.6515982,22.5349407 C63.6515982,22.938923 63.4246336,23.1813124 63.0213858,23.1813124 L62.035669,23.1813124 L62.035669,24.6033301 L68.3216336,24.6033301 L68.3216336,23.1813124 L67.3197575,23.1813124 C66.9157752,23.1813124 66.6902796,22.938923 66.6902796,22.5349407 L66.6902796,19.754808 L68.0146071,19.754808 C69.3242442,19.754808 69.4851027,19.9810381 69.4851027,20.9505956 L69.4851027,22.276392 C69.4851027,24.1670292 70.5200319,24.9265159 72.0551646,24.9265159 C74.1397133,24.9265159 74.6898637,23.7307283 74.6898637,22.163277 L74.6898637,21.6131265 L73.6071912,21.6131265 L73.6071912,22.2602327 Z" id="Fill-40" fill="#002A54"></path>
                    <path d="M81.5568283,15.3104885 L82.2193593,15.3104885 C82.5432796,15.3104885 82.7202973,15.3751257 82.7202973,15.5690372 C82.7202973,15.7467894 82.5587044,15.9891788 82.477908,16.1184531 L81.039731,18.3330106 L79.6169788,16.1184531 C79.5369168,15.9891788 79.3745894,15.7467894 79.3745894,15.5690372 C79.3745894,15.3751257 79.5692354,15.3104885 79.8762619,15.3104885 L80.5387929,15.3104885 L80.5387929,13.8884708 L74.3806336,13.8884708 L74.3806336,15.3104885 L74.7199788,15.3104885 C75.593315,15.3104885 75.8518637,15.5367186 76.2881646,16.2154088 L78.8420673,20.288285 L78.8420673,22.5344265 C78.8420673,22.9391434 78.6151027,23.1815327 78.2111204,23.1815327 L77.1446071,23.1815327 L77.1446071,24.6035504 L83.6097929,24.6035504 L83.6097929,23.1815327 L82.5102265,23.1815327 C82.1062442,23.1815327 81.8800142,22.9391434 81.8800142,22.5344265 L81.8800142,20.288285 L84.7563681,15.7467894 C84.9671735,15.4236035 85.2903593,15.3104885 85.8720938,15.3104885 L86.2114389,15.3104885 L86.2114389,13.8884708 L81.5568283,13.8884708 L81.5568283,15.3104885 Z" id="Fill-42" fill="#002A54"></path>
                </g>
            </g>
        </g>
    </g>
</svg>